<svg xmlns="http://www.w3.org/2000/svg" viewBox="0 0 640 420" role="img" aria-labelledby="title desc">
  <title id="title">Musical structure and reward</title>
  <desc id="desc">Melody, emotion and pleasure in neural circuits</desc>
  <defs>
    <linearGradient id="bg" x1="0" y1="0" x2="1" y2="1">
      <stop offset="0" stop-color="#f8fff0"/>
      <stop offset="0.55" stop-color="#e9f5dd"/>
      <stop offset="1" stop-color="#d7edf3"/>
    </linearGradient>
    <linearGradient id="accent" x1="0" y1="0" x2="1" y2="0">
      <stop offset="0" stop-color="#80B421"/>
      <stop offset="1" stop-color="#58b8d9"/>
    </linearGradient>
    <filter id="shadow" x="-20%" y="-20%" width="140%" height="140%">
      <feDropShadow dx="0" dy="14" stdDeviation="18" flood-color="#285018" flood-opacity="0.18"/>
    </filter>
  </defs>
  <rect width="640" height="420" rx="34" fill="url(#bg)"/>
  <circle cx="90" cy="88" r="58" fill="#ffffff" opacity="0.72"/>
  <circle cx="548" cy="72" r="38" fill="#80B421" opacity="0.13"/>
  <circle cx="530" cy="338" r="74" fill="#58b8d9" opacity="0.13"/>
  <g filter="url(#shadow)">
    <path d="M130 210 C210 95 330 98 420 205 C462 255 492 240 520 190" fill="none" stroke="url(#accent)" stroke-width="16" stroke-linecap="round" opacity="0.88"/>
    <path d="M150 285 C235 245 325 245 480 285" fill="none" stroke="#ffffff" stroke-width="12" stroke-linecap="round" opacity="0.95"/>
  </g>
  <g fill="#ffffff" stroke="#80B421" stroke-width="5">
    <circle cx="165" cy="190" r="27"/>
    <circle cx="302" cy="146" r="34"/>
    <circle cx="432" cy="214" r="29"/>
  </g>
  <g fill="#2f6b1f" opacity="0.86">
    <circle cx="165" cy="190" r="8"/>
    <circle cx="302" cy="146" r="10"/>
    <circle cx="432" cy="214" r="8"/>
  </g>
  <g stroke="#80B421" stroke-width="4" stroke-linecap="round" opacity="0.32">
    <path d="M70 350 H190"/>
    <path d="M92 326 H148"/>
    <path d="M470 112 H574"/>
    <path d="M510 136 H596"/>
  </g>
</svg>
